<svg xmlns="http://www.w3.org/2000/svg" width="14" height="14" viewBox="0 0 14 14"><path fill="#3F3F3F" d="M12.163,6.49h-1.085c-0.578,0.01-0.712,0.201-0.77,0.237c-0.223-0.4-0.434-0.758-0.965-1.274 s-1.341-2.02-1.93-3.576c0.031-0.397,0.031-1.03-0.28-1.448L6.802,0L6.265,0.01c-0.917,0-1.736,0.579-1.994,1.468 C3.927,2.669,4.535,3.779,4.753,4.924c-0.011,0-0.021,0-0.032,0c-1.613-0.363-5.173-0.277-4.399,2.36 c-0.42,0.692-0.42,1.491,0.032,2.168c-0.182,0.644-0.075,1.438,0.547,2.081c-0.173,2.357,2.897,2.578,4.538,2.424 c1.294,0,3.514,0.251,4.641-0.551c0.265,0.246,0.612,0.401,0.998,0.401h1.085c0.814,0,1.48-0.665,1.48-1.491V7.981 C13.644,7.156,12.978,6.49,12.163,6.49z M9.58,12.358c0,0.258-0.514,0.322-0.514,0.322c-1.219,0.15-2.443,0.204-3.67,0.204 c-1.29,0.082-3.506,0.193-3.39-1.514c0.028-0.414-0.613-0.791-0.656-1.24C1.322,9.829,1.663,9.333,1.438,9.088 C1.237,8.887,1.079,8.623,1.073,8.325c-0.011-0.56,0.739-0.778,0.434-1.11C1.04,6.726,1.532,6.066,2.021,5.922 c0.787-0.231,1.705-0.123,2.495,0.042c0.011,0,0.021,0,0.033,0.011c0.15,0.021,0.322,0.064,0.494,0.097 c1.259,0.417,0.68-1.755,0.538-2.217C5.32,3.013,4.763,1.083,6.276,1.083C6.352,1.18,6.373,1.578,6.33,1.909 c-0.103,0.518,0.584,1.546,0.79,1.978c0.438,0.921,0.986,1.959,1.764,2.657C9.391,7,9.58,7.575,9.58,7.768V12.358z M12.57,12.316 c0,0.225-0.183,0.418-0.407,0.418h-1.085c-0.224,0-0.406-0.182-0.406-0.418V7.981c0-0.172,0.096-0.321,0.246-0.386h0.012 c0.042-0.021,0.096-0.032,0.138-0.032h1.096c0.225,0,0.407,0.183,0.407,0.418V12.316z"/></svg>
